name analog
datacolumns 19
datarows 18
range 0.1315 0.14
endheader
time	ground_force_vx	ground_force_vy	ground_force_vz	ground_force_px	ground_force_py	ground_force_pz	l_ground_force_vx	l_ground_force_vy	l_ground_force_vz	l_ground_force_px	l_ground_force_py	l_ground_force_pz	ground_torque_x	ground_torque_y	ground_torque_z	l_ground_torque_x	l_ground_torque_y	l_ground_torque_z
0.1315	-0.0	-0.0	-0.0	10.680110931396484	13.002436637878418	-476.8069458007813	-7.891683101654053	-36.8760871887207	-148.38943481445312	-0.0	-0.0	-0.0	-0.0	-0.0	-0.0	35744.6953125	12098.9609375	-5920.51513671875
0.132	-0.0	-0.0	-0.0	10.78761386871338	12.606812477111816	-477.4585571289063	-7.678686618804932	-36.38853454589844	-145.2470703125	-0.0	-0.0	-0.0	-0.0	-0.0	-0.0	35285.1796875	12091.373046875	-5884.70361328125
0.1325	-0.0	-0.0	-0.0	10.926655769348145	12.745647430419922	-479.8014221191406	-8.03658676147461	-35.511898040771484	-143.33323669433594	-0.0	-0.0	-0.0	-0.0	-0.0	-0.0	34572.89453125	11980.5341796875	-5872.8310546875
0.133	-0.0	-0.0	-0.0	10.91724681854248	12.533852577209473	-482.8219604492188	-7.721034526824951	-34.66785430908203	-140.00979614257812	-0.0	-0.0	-0.0	-0.0	-0.0	-0.0	34100.8984375	11964.98046875	-5828.44873046875
0.1335	-0.0	-0.0	-0.0	11.02200412750244	12.121734619140623	-485.304931640625	-7.849381446838379	-34.186561584472656	-137.72232055664062	-0.0	-0.0	-0.0	-0.0	-0.0	-0.0	33417.01953125	12077.8876953125	-5844.77734375
0.134	-0.0	-0.0	-0.0	10.829094886779783	11.897483825683594	-488.1059875488281	-7.986865997314453	-33.24879455566406	-134.24310302734375	-0.0	-0.0	-0.0	-0.0	-0.0	-0.0	32766.154296875	11720.4169921875	-5769.9169921875
0.1345	-0.0	-0.0	-0.0	11.099848747253418	11.503304481506348	-493.0283508300781	-7.7122626304626465	-32.906768798828125	-133.86123657226562	-0.0	-0.0	-0.0	-0.0	-0.0	-0.0	32310.51953125	11853.712890625	-5800.19580078125
0.135	-0.0	-0.0	-0.0	10.786736488342283	11.495245933532717	-497.9735412597656	-7.71521520614624	-31.70748519897461	-128.2873992919922	-0.0	-0.0	-0.0	-0.0	-0.0	-0.0	31916.31640625	11734.0146484375	-5678.49560546875
0.1355	-0.0	-0.0	-0.0	10.700322151184082	11.3096923828125	-502.3935852050781	-7.626612663269043	-30.95549964904785	-127.30040740966795	-0.0	-0.0	-0.0	-0.0	-0.0	-0.0	31247.763671875	11447.837890625	-5588.4443359375
0.136	-0.0	-0.0	-0.0	10.211105346679688	11.80162239074707	-507.33837890625	-7.324585914611816	-30.16304016113281	-122.22178649902344	-0.0	-0.0	-0.0	-0.0	-0.0	-0.0	30507.9375	11406.6806640625	-5455.02880859375
0.1365	-0.0	-0.0	-0.0	10.163497924804688	11.899991035461426	-512.9981079101562	-6.9626898765563965	-28.792869567871094	-120.27837371826172	-0.0	-0.0	-0.0	-0.0	-0.0	-0.0	29797.677734375	11045.84765625	-5292.46435546875
0.137	-0.0	-0.0	-0.0	9.23020076751709	12.067917823791504	-517.7618408203125	-6.779005527496338	-27.51325416564941	-117.99667358398438	-0.0	-0.0	-0.0	-0.0	-0.0	-0.0	29003.970703125	10971.6904296875	-5232.6806640625
0.1375	-0.0	-0.0	-0.0	9.228520393371582	12.339797973632812	-523.0821533203125	-6.436420440673828	-26.1864070892334	-114.521728515625	-0.0	-0.0	-0.0	-0.0	-0.0	-0.0	28134.357421875	10432.4775390625	-4994.1337890625
0.138	-0.0	-0.0	-0.0	8.698902130126953	12.789336204528809	-529.4027709960938	-5.987075805664063	-25.523170471191406	-109.45548248291016	-0.0	-0.0	-0.0	-0.0	-0.0	-0.0	27398.884765625	10079.892578125	-4786.6513671875
0.1385	-0.0	-0.0	-0.0	7.981869220733643	12.880166053771973	-533.3147583007812	-5.724391937255859	-23.803539276123047	-106.14208984375	-0.0	-0.0	-0.0	-0.0	-0.0	-0.0	26149.41796875	9890.564453125	-4460.8583984375
0.139	-0.0	-0.0	-0.0	7.047630310058594	13.547821044921877	-537.3603515625	-5.1031694412231445	-22.342334747314453	-101.76864624023438	-0.0	-0.0	-0.0	-0.0	-0.0	-0.0	25335.77734375	9398.244140625	-4176.845703125
0.1395	-0.0	-0.0	-0.0	7.1368408203125	14.12649631500244	-539.848876953125	-5.326837062835693	-20.928068161010746	-95.49021911621094	-0.0	-0.0	-0.0	-0.0	-0.0	-0.0	24035.630859375	8893.2021484375	-4101.8076171875
0.14	-0.0	-0.0	-0.0	6.107827663421631	14.44036102294922	-542.6633911132812	-5.1439361572265625	-19.516525268554688	-90.77434539794922	-0.0	-0.0	-0.0	-0.0	-0.0	-0.0	23127.453125	8464.453125	-4012.829833984375
